<svg width="190" height="56" viewBox="0 0 190 56" fill="none" xmlns="http://www.w3.org/2000/svg">
<rect width="190" height="56" fill="#47CAD1"/>
<path fill-rule="evenodd" clip-rule="evenodd" d="M0.200012 21.2C0.200012 15.6771 4.67717 11.2 10.2 11.2H25.2C30.7229 11.2 35.2 15.6771 35.2 21.2V36.2C35.2 41.7228 30.7229 46.2 25.2 46.2H10.2C4.67716 46.2 0.200012 41.7228 0.200012 36.2V21.2ZM17.7 21.7C17.7 25.566 14.566 28.7 10.7 28.7C6.83401 28.7 3.7 25.566 3.7 21.7C3.7 17.834 6.83401 14.7 10.7 14.7C14.566 14.7 17.7 17.834 17.7 21.7ZM24.7 42.7C28.566 42.7 31.7 39.566 31.7 35.7C31.7 31.834 28.566 28.7 24.7 28.7C20.834 28.7 17.7 31.834 17.7 35.7C17.7 39.566 20.834 42.7 24.7 42.7Z" fill="white"/>
<path d="M178.179 45.8723V24.4775H180.876L181.153 26.2415C181.287 25.5863 181.573 25.0907 182.01 24.7547C182.463 24.4187 183.102 24.2507 183.925 24.2507H185.689C186.966 24.2507 187.898 24.5027 188.486 25.0067C189.074 25.5107 189.368 26.4011 189.368 27.6779V36.3719C189.368 37.7327 189.057 38.6735 188.436 39.1943C187.831 39.7151 186.806 39.9755 185.361 39.9755L181.228 39.9251V45.8723H178.179ZM181.228 27.0731V37.4303L185.991 37.4807C186.21 37.4807 186.319 37.3715 186.319 37.1531V27.0731C186.319 26.8379 186.21 26.7203 185.991 26.7203H181.581C181.346 26.7203 181.228 26.8379 181.228 27.0731Z" fill="white"/>
<path d="M167.539 40.1268C166.279 40.1268 165.355 39.8832 164.767 39.396C164.195 38.892 163.91 38.0016 163.91 36.7248V34.4568C163.91 33.1128 164.212 32.1804 164.817 31.6596C165.439 31.122 166.463 30.8532 167.891 30.8532H171.848V27.3504C171.848 27.132 171.739 27.0228 171.52 27.0228L164.842 27.048V24.4524H170.84C172.285 24.4356 173.326 24.7128 173.965 25.284C174.603 25.8384 174.922 26.8128 174.922 28.2072V39.9H172.175L171.923 38.1612C171.789 38.8164 171.495 39.312 171.041 39.648C170.605 39.9672 169.975 40.1268 169.151 40.1268H167.539ZM171.848 37.6572V33.0708H167.261C167.043 33.0708 166.934 33.18 166.934 33.3984V37.3044C166.934 37.5396 167.043 37.6572 167.261 37.6572H171.848Z" fill="white"/>
<path d="M146.49 40.1267C145.213 40.1267 144.281 39.8999 143.693 39.4463C143.122 38.9927 142.836 38.1275 142.836 36.8507V24.4775H145.885V37.3043C145.885 37.5395 145.994 37.6571 146.213 37.6571H150.245C150.463 37.6571 150.572 37.5395 150.572 37.3043V24.4775H153.571V37.3043C153.571 37.5395 153.68 37.6571 153.899 37.6571H157.956C158.174 37.6571 158.284 37.5395 158.284 37.3043L158.258 24.4775H161.308L161.333 36.7247C161.333 38.0015 161.039 38.8919 160.451 39.3959C159.88 39.8831 158.956 40.1267 157.679 40.1267H155.36C153.563 40.1267 152.462 39.5051 152.059 38.2619C151.656 39.5051 150.564 40.1267 148.783 40.1267H146.49Z" fill="white"/>
<path d="M135.262 28.434C136.825 28.434 138.018 28.7952 138.841 29.5176C139.664 30.2232 140.076 31.2732 140.076 32.6676V35.742C140.076 37.17 139.672 38.2536 138.866 38.9928C138.076 39.7152 136.9 40.0596 135.338 40.026L127.627 39.9V37.1532H136.422C136.69 37.1532 136.825 37.0188 136.825 36.75V31.71C136.825 31.4412 136.69 31.3068 136.422 31.3068H131.936C130.374 31.3068 129.189 30.9624 128.383 30.2736C127.593 29.5848 127.198 28.5264 127.198 27.0984V24.1248C127.198 22.7304 127.61 21.6552 128.433 20.8992C129.256 20.1264 130.449 19.7568 132.012 19.7904L139.345 19.9164V22.6632H130.852C130.584 22.6632 130.449 22.806 130.449 23.0916V28.0308C130.449 28.2996 130.584 28.434 130.852 28.434H135.262Z" fill="white"/>
<path d="M124.192 18.6816V39.9H121.496L121.194 38.136C121.059 38.7912 120.765 39.2868 120.312 39.6228C119.875 39.9588 119.245 40.1268 118.422 40.1268H116.658C115.398 40.1268 114.474 39.8832 113.886 39.396C113.314 38.892 113.029 38.0016 113.029 36.7248V27.9804C113.029 26.6364 113.331 25.704 113.936 25.1832C114.558 24.6456 115.582 24.3852 117.01 24.402L121.118 24.4272V18.6816H124.192ZM116.38 37.6572H120.79C121.009 37.6572 121.118 37.5396 121.118 37.3044V26.8968L116.38 26.8464C116.162 26.8464 116.053 26.964 116.053 27.1992V37.3044C116.053 37.5396 116.162 37.6572 116.38 37.6572Z" fill="white"/>
<path d="M111.654 24.2507V26.7203H107.849C107.614 26.7203 107.496 26.8379 107.496 27.0731L107.522 39.8999H104.498L104.447 24.4775H107.169L107.396 26.0399C107.732 24.8471 108.664 24.2507 110.193 24.2507H111.654Z" fill="white"/>
<path d="M93.9073 40.1268C92.6473 40.1268 91.7233 39.8832 91.1353 39.396C90.5641 38.892 90.2785 38.0016 90.2785 36.7248V34.4568C90.2785 33.1128 90.5809 32.1804 91.1857 31.6596C91.8073 31.122 92.8321 30.8532 94.2601 30.8532H98.2165V27.3504C98.2165 27.132 98.1073 27.0228 97.8889 27.0228L91.2109 27.048V24.4524H97.2085C98.6533 24.4356 99.6949 24.7128 100.333 25.284C100.972 25.8384 101.291 26.8128 101.291 28.2072V39.9H98.5441L98.2921 38.1612C98.1577 38.8164 97.8637 39.312 97.4101 39.648C96.9733 39.9672 96.3433 40.1268 95.5201 40.1268H93.9073ZM98.2165 37.6572V33.0708H93.6301C93.4117 33.0708 93.3025 33.18 93.3025 33.3984V37.3044C93.3025 37.5396 93.4117 37.6572 93.6301 37.6572H98.2165Z" fill="white"/>
<path d="M76.5331 28.0811C76.5331 26.6867 76.8691 25.7039 77.5411 25.1327C78.2131 24.5447 79.3135 24.2507 80.8423 24.2507H83.5891C85.1347 24.2507 86.2435 24.5447 86.9155 25.1327C87.5875 25.7039 87.9235 26.6867 87.9235 28.0811V36.2963C87.9235 37.6907 87.5875 38.6819 86.9155 39.2699C86.2435 39.8411 85.1347 40.1267 83.5891 40.1267H80.8423C79.3135 40.1267 78.2131 39.8411 77.5411 39.2699C76.8691 38.6819 76.5331 37.6907 76.5331 36.2963V28.0811ZM79.9603 26.7959C79.7251 26.7959 79.6075 26.9135 79.6075 27.1487V37.2287C79.6075 37.4639 79.7251 37.5815 79.9603 37.5815H84.5215C84.7399 37.5815 84.8491 37.4639 84.8491 37.2287V27.1487C84.8491 26.9135 84.7399 26.7959 84.5215 26.7959H79.9603Z" fill="white"/>
<path d="M68.436 40.0259L59.7924 39.8999V19.9163L68.058 19.7903C69.6036 19.7567 70.7712 20.1095 71.5608 20.8487C72.3672 21.5711 72.7704 22.6463 72.7704 24.0743V26.6195C72.7704 28.0643 72.2412 29.0807 71.1828 29.6687C71.8716 29.9375 72.384 30.3491 72.72 30.9035C73.056 31.4411 73.224 32.1551 73.224 33.0455V35.6915C73.224 37.0859 72.8124 38.1611 71.9892 38.9171C71.1828 39.6731 69.9984 40.0427 68.436 40.0259ZM69.1164 22.5119H62.9676V28.4339H69.1164C69.402 28.4339 69.5448 28.2995 69.5448 28.0307V22.9151C69.5448 22.6463 69.402 22.5119 69.1164 22.5119ZM69.5952 31.0547H62.9676V37.2791H69.5952C69.864 37.2791 69.9984 37.1447 69.9984 36.8759V31.4579C69.9984 31.1891 69.864 31.0547 69.5952 31.0547Z" fill="white"/>
</svg>
